<svg width="537" height="107" viewBox="0 0 537 107" fill="none" xmlns="http://www.w3.org/2000/svg">
<path d="M53.5 0C24.0906 0 0 23.7778 0 53.5C0 82.9093 23.7778 107 53.5 107C82.9093 107 107 83.2222 107 53.5C107 23.7778 82.9093 0 53.5 0ZM53.5 102.62C26.2807 102.62 4.3801 80.7193 4.3801 53.5C4.3801 26.2807 26.2807 4.38012 53.5 4.38012C80.7193 4.38012 102.62 26.2807 102.62 53.5C102.933 80.4064 80.7193 102.62 53.5 102.62Z" fill="#74777B"/>
<path d="M53.4998 93.2339C55.377 93.2339 56.3156 91.9825 56.6284 90.4182C56.9413 91.0439 57.567 91.6696 58.1928 91.9825C58.8185 91.9825 59.7571 91.9825 60.3828 91.6696C61.0085 91.3568 61.6343 90.731 61.9471 90.1053C62.26 89.4796 62.26 88.5409 61.9471 87.9152C62.8857 89.1667 64.1372 89.4796 65.7015 88.8538C67.5787 87.9152 68.2045 86.6638 67.2659 84.7866C65.0758 79.4679 62.8857 74.462 60.6957 69.1433C60.3828 68.5176 60.3828 68.2047 60.0699 67.579C59.7571 67.2661 59.7571 66.9532 59.4442 66.6404C59.4442 66.3275 59.1313 66.3275 58.8185 66.0146C62.26 66.3275 63.8243 67.579 64.7629 68.2047C65.0758 68.5176 65.0758 68.5176 66.0144 68.2047C66.3273 68.2047 66.953 68.2047 67.2659 68.2047C67.5787 68.5176 68.2044 68.8304 68.5173 68.8304C69.7688 69.769 71.0202 70.7076 72.2717 71.6462C72.8974 72.272 73.5232 72.8977 73.5232 73.8363C73.5232 74.462 71.646 76.0263 71.3331 76.6521C70.0816 77.9035 71.9588 79.7807 74.4617 79.7807C73.836 79.155 73.5232 78.5293 73.836 77.9035C74.1489 77.9035 74.4618 77.9035 75.0875 77.5907C75.7132 77.2778 75.4003 75.7135 75.7132 75.4006C76.6518 74.462 79.1547 74.462 81.0319 74.462C81.6576 74.462 82.5962 74.1491 82.2834 73.2106C83.222 73.2106 83.5348 74.1491 83.5348 74.7749C84.4734 74.1491 85.0992 71.9591 81.9705 71.3334C82.5963 70.7076 83.5348 70.7076 84.1606 71.3334C84.7863 70.3948 83.222 68.8304 80.7191 69.769C80.7191 69.769 79.4676 68.2047 76.3389 71.9591C76.0261 71.6462 75.4004 71.3334 75.0875 71.0205C73.836 69.769 70.7074 66.6404 70.7074 66.6404C70.7074 64.7632 70.3945 61.3217 68.2044 59.4445C67.2658 58.5059 66.3273 58.193 64.1372 57.5673C64.1372 57.5673 65.0758 56.003 65.3886 55.3772C67.2658 57.2544 71.0202 57.8801 71.0202 54.7515C74.1489 57.8801 76.9647 56.003 76.9647 54.1258C76.9647 55.0644 77.2775 56.003 77.5904 56.9416C77.9033 57.8802 79.4676 61.9474 82.9091 61.9474C82.9091 63.1989 82.9091 67.8918 87.2892 68.8304C87.6021 68.8304 87.6021 68.8304 87.915 69.1433C89.7922 71.3333 96.9881 73.5234 97.6138 72.8977C96.9881 72.5848 96.0495 71.9591 96.0495 69.4562C96.0495 67.8918 95.7366 59.1316 95.7366 46.9298C95.7366 42.5497 95.4237 28.4708 81.3448 26.5936C79.1547 26.2807 77.2775 26.5936 75.4004 27.8451C72.8974 29.7223 71.646 32.8509 73.2103 36.2924V36.6053C73.836 37.5439 73.5231 38.1696 72.8974 38.7954C71.646 40.0468 70.3945 40.6725 68.8302 40.9854C67.8916 40.9854 66.953 40.6726 66.3272 40.0468C64.7629 38.4825 63.8243 36.6053 63.1986 34.4152C62.5729 30.348 63.5115 28.1579 63.5115 27.8451C64.7629 25.655 66.953 23.7778 69.7688 23.7778C71.0202 21.2749 74.7746 22.2135 74.7746 22.2135C75.7132 22.5263 76.0261 22.5263 76.3389 23.1521C76.3389 23.1521 77.9033 20.6492 76.3389 19.7106C74.7746 18.772 71.3331 18.4591 71.3331 18.4591C71.3331 16.8948 68.8302 15.6433 63.8243 16.5819C58.1927 17.5205 56.9413 15.3304 56.9413 15.3304C56.6284 18.1462 58.8185 19.3977 59.4442 20.0234C57.2542 22.5263 54.1255 27.2193 53.4998 33.7895C52.874 27.2193 49.7454 22.5263 47.5553 20.0234C48.1811 19.7106 50.3711 18.1462 50.0583 15.3304C50.0583 15.3304 48.8068 17.5205 43.1752 16.5819C38.4822 15.6433 35.6664 16.8948 35.6664 18.4591C35.6664 18.4591 32.2249 18.772 30.6606 19.7106C29.0963 20.6492 30.6606 23.1521 30.6606 23.1521C30.9734 22.8392 31.2863 22.5263 32.2249 22.2135C32.2249 22.2135 35.9793 21.2749 37.2308 23.7778C40.0465 24.0907 42.2366 25.655 43.4881 27.8451C43.4881 27.8451 44.7395 30.0351 43.8009 34.4152C43.4881 36.6053 42.2366 38.4825 40.6723 40.0468C40.0466 40.6726 39.108 41.2983 38.1694 40.9854C36.605 40.6725 35.3536 40.0468 34.1021 38.7954C33.4764 38.1696 33.1635 37.5439 33.7892 36.6053V36.2924C35.3536 32.8509 34.1021 29.7223 31.5992 27.8451C29.722 26.5936 27.8448 26.2807 25.6547 26.5936C11.8887 28.4708 11.2629 42.5497 11.2629 46.9298C11.2629 59.1316 10.9501 67.8918 10.9501 69.4562C10.9501 71.9591 10.0115 72.5848 9.38574 72.8977C10.3243 73.5234 17.5202 71.3333 19.0846 69.1433C19.0846 69.1433 19.3974 68.8304 19.7103 68.8304C24.0904 67.8918 24.0904 63.1989 24.0904 61.9474C27.5319 61.9474 29.0962 57.8802 29.4091 56.9416C29.722 56.003 30.0349 55.0644 30.0349 54.1258C30.0349 56.003 32.8507 57.5673 35.9793 54.7515C35.9793 57.8801 39.7337 57.2544 41.6109 55.3772C41.9237 56.003 42.8623 57.5673 42.8623 57.5673C40.6723 57.8801 39.7337 58.5059 38.7951 59.4445C36.2922 61.6345 36.2922 65.0761 36.2922 66.6404C36.2922 66.6404 33.1635 69.769 31.912 71.0205C31.5992 71.3334 30.9734 71.6462 30.6606 71.9591C27.2191 68.2047 26.2805 69.769 26.2805 69.769C23.7775 68.8304 22.5261 70.3948 22.8389 71.3334C23.4647 70.7076 24.4033 71.0205 25.029 71.3334C21.5875 71.9591 22.5261 74.462 23.4647 74.7749C23.4647 74.1491 23.7775 73.2106 24.7161 73.2106C24.7161 74.1491 25.3419 74.462 25.9676 74.462C27.5319 74.462 30.3477 74.462 31.2863 75.4006C31.9121 75.7135 31.5992 77.2778 31.912 77.5907C32.2249 77.9035 32.8506 77.9035 33.1635 77.9035C33.1635 78.5293 33.1635 78.8421 32.5378 79.7807C35.0407 80.0936 36.605 77.9035 35.6664 76.6521C35.0407 76.0263 33.4764 74.462 33.4764 73.8363C33.4764 73.2105 34.1021 72.272 34.7278 71.6462C35.9793 70.7076 37.2308 69.769 38.4822 68.8304C38.7951 68.5176 39.108 68.2047 39.7337 68.2047C40.0465 67.8918 40.6723 67.8918 40.9852 68.2047C41.9237 68.5176 41.9238 68.5176 42.2366 68.2047C43.1752 67.579 44.7395 66.3275 48.181 66.0146C47.8682 66.0146 47.8682 66.3275 47.5553 66.6404C47.2425 66.9532 47.2425 67.2661 46.9296 67.579C46.6167 67.8918 46.6167 68.5176 46.3039 69.1433C44.1138 74.462 41.9237 79.4679 39.7337 84.7866C39.108 86.6638 39.7337 87.9152 41.298 88.8538C42.5495 89.4796 44.1138 89.1667 45.0524 87.9152C44.7395 88.8538 44.7395 89.4796 45.0524 90.1053C45.3653 90.731 45.991 91.3568 46.6167 91.6696C47.2424 91.9825 48.1811 91.9825 48.8068 91.9825C49.7454 91.6696 50.0582 91.3567 50.3711 90.4182C50.684 91.9825 51.6226 93.2339 53.4998 93.2339Z" fill="#74777B"/>
<path d="M226.14 55.8608C226.14 57.0039 226.233 57.6411 226.421 57.7722C227.489 57.7722 229.157 56.6385 231.424 54.371L234.994 50.745L239.491 45.7978L240.531 45.9102L241.796 45.9664H242.162H242.499L242.893 45.9102L244.045 45.7978V46.1913L240.756 49.0022L235.584 53.4716L233.476 55.3549L231.368 57.3225L236.118 62.8319L241.037 68.5942L244.916 73.0354V73.3165L243.399 73.2322L242.077 73.1479L240.616 73.2322L239.21 73.3165L236.934 70.5056L233.279 66.1768L228.22 60.3583C227.658 59.7399 227.217 59.4307 226.899 59.4307C226.393 59.4307 226.14 60.1428 226.14 61.5669V73.3165L224.931 73.2322L223.835 73.1479L222.654 73.2322L221.53 73.3165V45.7978L222.57 45.9102L223.835 45.9664L224.987 45.9102L226.14 45.7978V55.8608Z" fill="#74777B"/>
<path d="M209.624 57.3787V45.7978L210.636 45.8821L211.929 45.9664C212.641 45.9664 213.409 45.9102 214.234 45.7978V73.3165L213.081 73.2322L211.929 73.1479C211.217 73.1479 210.448 73.2041 209.624 73.3165V59.9647L206.448 59.8523L202.681 59.7961L200.91 59.8242L198.914 59.8523L195.71 59.9647V73.3165L194.529 73.2322L193.405 73.1479L192.224 73.2322L191.1 73.3165V45.7978C191.775 45.9102 192.543 45.9664 193.405 45.9664C194.173 45.9664 194.942 45.9102 195.71 45.7978V57.3787L198.914 57.5474L202.681 57.6598L204.677 57.6036L206.448 57.5474L209.624 57.3787Z" fill="#74777B"/>
<path d="M183.382 68.4819C183.382 69.5126 183.467 70.2528 183.635 70.7025C183.804 71.1335 184.235 71.349 184.928 71.349L185.8 71.3209L186.615 71.1242V72.3891C185.922 72.6514 185.284 72.8575 184.704 73.0075C184.235 73.0824 183.879 73.1293 183.635 73.148C183.392 73.148 183.195 73.148 183.045 73.148C181.865 73.148 180.928 72.8482 180.234 72.2485C179.541 71.6489 179.11 70.7775 178.941 69.6344L178.435 70.1403C175.999 72.5765 173.16 73.7945 169.918 73.7945C167.838 73.7945 166.03 73.1293 164.493 71.7988C162.957 70.4683 162.188 68.7817 162.188 66.7392C162.188 64.734 162.647 63.188 163.566 62.1012C164.484 61.0143 165.664 60.2366 167.107 59.7681C168.569 59.2996 170.499 58.8686 172.898 58.4751C174.715 58.194 175.971 57.9317 176.664 57.6881C177.489 57.4632 178.079 57.1165 178.435 56.648C178.81 56.1795 178.997 55.4955 178.997 54.5961C178.997 52.4785 178.407 50.8295 177.227 49.6489C176.065 48.4683 174.416 47.878 172.279 47.878C170.368 47.878 168.822 48.3184 167.641 49.1991C166.461 50.0611 165.721 50.9419 165.421 51.8414H164.802V48.6088C167.857 46.51 170.94 45.4606 174.05 45.4606C180.272 45.4606 183.382 48.6838 183.382 55.1301V68.4819ZM178.773 58.9811L176.777 59.4308L173.685 60.0492C172.298 60.3116 171.136 60.6582 170.199 61.0892C169.281 61.5015 168.513 62.1012 167.894 62.8882C167.276 63.6753 166.967 64.6966 166.967 65.9521C166.967 67.6949 167.463 69.0254 168.457 69.9436C169.45 70.8431 170.836 71.2928 172.617 71.2928C173.385 71.2928 174.191 71.0773 175.034 70.6463C175.896 70.2153 176.627 69.7 177.227 69.1003L177.817 68.5662L178.52 67.8635C178.688 67.6574 178.773 67.4981 178.773 67.3857V58.9811Z" fill="#74777B"/>
<path d="M137.464 70.7869H143.227C145.063 70.7869 146.703 70.3841 148.146 69.5783C149.607 68.7537 150.751 67.62 151.575 66.1771C152.418 64.7154 152.84 63.1413 152.84 61.4548C152.84 59.3934 152.212 57.5945 150.957 56.0578C149.72 54.5025 148.005 53.6311 145.813 53.4437L144.464 53.3594L142.299 53.3313L139.544 53.3594L137.464 53.3875V70.7869ZM132.405 33.936H155.707C155.595 34.367 155.538 34.948 155.538 35.6788C155.538 36.2785 155.595 36.85 155.707 37.3934L152.84 36.9156C151.959 36.8032 151.191 36.7469 150.535 36.7469L143.62 36.6345H137.464V51.1387H142.749C148.333 51.1387 152.297 51.9352 154.639 53.528C157 55.1021 158.181 57.6507 158.181 61.1737C158.181 63.4036 157.656 65.3994 156.607 67.1609C155.557 68.9224 154.049 70.3185 152.081 71.3491C151.05 71.8551 149.954 72.2767 148.792 72.614C147.63 72.9326 146.459 73.0919 145.279 73.0919L132.405 73.1481V33.936Z" fill="#74777B"/>
<path d="M526.628 73.3166L525.448 73.2322L524.323 73.1479L523.143 73.2322L522.018 73.3166V48.5525C517.633 48.5525 514.335 48.7305 512.124 49.0866L512.208 48.3276L512.293 47.5125L512.208 46.7817L512.124 45.9665H536.523L536.41 47.5125L536.523 49.0866C535.829 48.9742 535.155 48.8805 534.499 48.8055C533.843 48.7305 533.15 48.6931 532.419 48.6931C531.763 48.6931 530.742 48.6743 529.355 48.6368C527.987 48.5806 527.078 48.5525 526.628 48.5525V73.3166Z" fill="#74777B"/>
<path d="M508.256 68.4819C508.256 69.5126 508.341 70.2528 508.509 70.7025C508.678 71.1335 509.109 71.349 509.802 71.349L510.674 71.3209L511.489 71.1242V72.3891C510.795 72.6514 510.158 72.8575 509.577 73.0075C509.109 73.0824 508.753 73.1293 508.509 73.148C508.266 73.148 508.069 73.148 507.919 73.148C506.738 73.148 505.801 72.8482 505.108 72.2485C504.415 71.6489 503.984 70.7775 503.815 69.6344L503.309 70.1403C500.873 72.5765 498.034 73.7945 494.792 73.7945C492.712 73.7945 490.904 73.1293 489.367 71.7988C487.83 70.4683 487.062 68.7817 487.062 66.7392C487.062 64.734 487.521 63.188 488.439 62.1012C489.358 61.0143 490.538 60.2366 491.981 59.7681C493.443 59.2996 495.373 58.8686 497.772 58.4751C499.589 58.194 500.845 57.9317 501.538 57.6881C502.363 57.4632 502.953 57.1165 503.309 56.648C503.684 56.1795 503.871 55.4955 503.871 54.5961C503.871 52.4785 503.281 50.8295 502.1 49.6489C500.938 48.4683 499.289 47.878 497.153 47.878C495.242 47.878 493.696 48.3184 492.515 49.1991C491.335 50.0611 490.594 50.9419 490.295 51.8414H489.676V48.6088C492.731 46.51 495.813 45.4606 498.924 45.4606C505.145 45.4606 508.256 48.6838 508.256 55.1301V68.4819ZM503.646 58.9811L501.651 59.4308L498.559 60.0492C497.172 60.3116 496.01 60.6582 495.073 61.0892C494.155 61.5015 493.387 62.1012 492.768 62.8882C492.15 63.6753 491.841 64.6966 491.841 65.9521C491.841 67.6949 492.337 69.0254 493.33 69.9436C494.324 70.8431 495.71 71.2928 497.49 71.2928C498.259 71.2928 499.065 71.0773 499.908 70.6463C500.77 70.2153 501.501 69.7 502.1 69.1003L502.691 68.5662L503.393 67.8635C503.562 67.6574 503.646 67.4981 503.646 67.3857V58.9811Z" fill="#74777B"/>
<path d="M475.859 33.936L476.618 34.0204L477.602 34.0766L478.389 34.1047L479.148 34.0766L480.132 33.9923L480.947 33.936V73.3168L479.626 73.2324L478.389 73.1481L477.096 73.2324L475.859 73.3168V53.4999C471.212 55.9173 466.433 57.126 461.524 57.126C460.737 57.126 460.184 57.1166 459.865 57.0979C459.565 57.0604 459.144 56.9948 458.6 56.9011C457.682 56.7512 456.698 56.4982 455.649 56.1422C453.681 55.4675 452.042 54.4462 450.73 53.0783C449.418 51.7103 448.762 50.0706 448.762 48.1592V33.936L449.493 34.0204L450.505 34.0766L451.292 34.1047L452.023 34.0766L453.035 33.9923L453.822 33.936V48.1592C453.822 49.5646 454.318 50.7265 455.312 51.6447C456.324 52.5442 457.598 53.1907 459.134 53.5842C460.69 53.959 462.255 54.1464 463.829 54.1464C465.759 54.1464 467.895 53.781 470.237 53.0502C472.58 52.3193 474.454 51.4573 475.859 50.4641V33.936Z" fill="#74777B"/>
<path d="M438.374 66.8796C439.255 66.8796 440.042 67.2169 440.735 67.8916C441.428 68.5662 441.775 69.372 441.775 70.3089C441.775 71.2459 441.438 72.0611 440.763 72.7544C440.089 73.4478 439.292 73.7945 438.374 73.7945C437.418 73.7945 436.594 73.4478 435.9 72.7544C435.207 72.0611 434.86 71.2459 434.86 70.3089C434.86 69.4094 435.216 68.613 435.928 67.9197C436.641 67.2263 437.456 66.8796 438.374 66.8796Z" fill="#74777B"/>
<path d="M425.26 45.7978H427.565V73.3165L426.413 73.2322L425.26 73.1479L424.108 73.2322L422.955 73.3165V53.2748L419.892 56.7603L417.053 60.0772C416.116 61.164 415.216 62.2322 414.354 63.2816C413.511 64.331 412.583 65.5022 411.571 66.7952C409.791 69.0439 408.18 71.2177 406.737 73.3165H404.432V45.7978C404.881 45.9102 405.65 45.9664 406.737 45.9664C407.674 45.9664 408.442 45.9102 409.042 45.7978V65.8395L412.808 61.6232L416.968 56.6198L421.269 51.1666L423.321 48.44L425.26 45.7978Z" fill="#74777B"/>
<path d="M394.943 45.7978H397.247V73.3165L396.095 73.2322L394.943 73.1479L393.79 73.2322L392.638 73.3165V53.2748L389.574 56.7603L386.735 60.0772C385.798 61.164 384.898 62.2322 384.036 63.2816C383.193 64.331 382.265 65.5022 381.253 66.7952C379.473 69.0439 377.862 71.2177 376.419 73.3165H374.114V45.7978C374.564 45.9102 375.332 45.9664 376.419 45.9664C377.356 45.9664 378.124 45.9102 378.724 45.7978V65.8395L382.49 61.6232L386.65 56.6198L390.951 51.1666L393.003 48.44L394.943 45.7978Z" fill="#74777B"/>
<path d="M368.392 51.6165H367.914C367.258 50.6608 366.743 50.0237 366.368 49.7051C365.75 48.9743 364.878 48.4121 363.754 48.0186C362.648 47.6063 361.618 47.4002 360.662 47.4002C358.563 47.4002 356.755 47.953 355.237 49.0586C354.487 49.5833 353.85 50.1923 353.326 50.8857C352.82 51.5603 352.342 52.3942 351.892 53.3874C351.142 55.2613 350.768 57.2008 350.768 59.2059C350.768 61.6046 351.199 63.7596 352.061 65.671C352.941 67.5824 354.178 69.0909 355.771 70.1966C357.364 71.2834 359.191 71.8269 361.252 71.8269C362.77 71.8269 364.119 71.5177 365.3 70.8993C366.481 70.2809 367.783 69.3439 369.207 68.0884L369.544 68.257L369.263 70.8993C366.602 72.8294 363.66 73.7945 360.437 73.7945C357.364 73.7945 354.703 73.1761 352.454 71.9393C350.224 70.7025 348.538 68.9972 347.395 66.8235C346.27 64.6497 345.708 62.2042 345.708 59.487C345.708 56.5824 346.336 54.0901 347.591 52.01C348.847 49.9112 350.618 48.2809 352.904 47.1191C353.935 46.6131 355.106 46.2102 356.418 45.9104C357.748 45.6105 359.144 45.4606 360.606 45.4606C364.091 45.4606 367.127 46.2477 369.713 47.8218L368.392 51.6165Z" fill="#74777B"/>
<path d="M342.404 51.6165H341.926C341.27 50.6608 340.755 50.0237 340.38 49.7051C339.761 48.9743 338.89 48.4121 337.766 48.0186C336.66 47.6063 335.629 47.4002 334.674 47.4002C332.575 47.4002 330.767 47.953 329.249 49.0586C328.499 49.5833 327.862 50.1923 327.337 50.8857C326.831 51.5603 326.353 52.3942 325.904 53.3874C325.154 55.2613 324.779 57.2008 324.779 59.2059C324.779 61.6046 325.21 63.7596 326.072 65.671C326.953 67.5824 328.19 69.0909 329.783 70.1966C331.376 71.2834 333.203 71.8269 335.264 71.8269C336.782 71.8269 338.131 71.5177 339.312 70.8993C340.492 70.2809 341.795 69.3439 343.219 68.0884L343.556 68.257L343.275 70.8993C340.614 72.8294 337.672 73.7945 334.449 73.7945C331.376 73.7945 328.715 73.1761 326.466 71.9393C324.236 70.7025 322.549 68.9972 321.406 66.8235C320.282 64.6497 319.72 62.2042 319.72 59.487C319.72 56.5824 320.347 54.0901 321.603 52.01C322.859 49.9112 324.629 48.2809 326.916 47.1191C327.946 46.6131 329.118 46.2102 330.429 45.9104C331.76 45.6105 333.156 45.4606 334.618 45.4606C338.103 45.4606 341.139 46.2477 343.725 47.8218L342.404 51.6165Z" fill="#74777B"/>
<path d="M304.019 45.4606C306.661 45.4606 308.975 46.0228 310.961 47.1472C312.948 48.2715 314.513 49.9112 315.656 52.0662C316.799 54.2025 317.37 56.6761 317.37 59.487C317.37 61.361 317.07 63.1318 316.471 64.7996C315.89 66.4674 314.962 68.0134 313.688 69.4376C313.107 70.0748 312.433 70.665 311.664 71.2085C310.896 71.7519 310.053 72.2204 309.134 72.6139C307.335 73.401 305.283 73.7945 302.979 73.7945C302.023 73.7945 301.123 73.7196 300.28 73.5696C299.456 73.4197 298.594 73.1667 297.694 72.8107C296.064 72.1548 294.621 71.2085 293.365 69.9717C292.128 68.7349 291.154 67.1983 290.442 65.3618C289.749 63.5254 289.402 61.5109 289.402 59.3184C289.402 57.8942 289.542 56.6105 289.823 55.4674C290.123 54.3243 290.62 53.2 291.313 52.0944C292.588 49.9768 294.349 48.3465 296.598 47.2034C298.865 46.0416 301.339 45.4606 304.019 45.4606ZM294.461 60.1898C294.461 63.3942 295.202 66.1676 296.682 68.51C298.181 70.8337 300.439 71.9955 303.456 71.9955C305.518 71.9955 307.204 71.3022 308.516 69.9155C309.828 68.5288 310.783 66.8328 311.383 64.8277C312.002 62.8226 312.311 60.9487 312.311 59.2059C312.311 57.1633 312.039 55.2519 311.496 53.4717C310.971 51.6915 310.071 50.2111 308.797 49.0305C307.542 47.8312 305.93 47.2315 303.962 47.2315C301.676 47.2315 299.821 47.8593 298.397 49.1148C296.991 50.3516 295.979 51.9538 295.361 53.9214C294.761 55.8891 294.461 57.9785 294.461 60.1898Z" fill="#74777B"/>
<path d="M266.309 73.3168L264.988 73.2324L263.779 73.1481L262.458 73.2324L261.249 73.3168V33.936H271.537C275.304 33.936 278.246 34.2359 280.363 34.8355C282.499 35.4352 284.036 36.4284 284.973 37.8151C285.929 39.1831 286.407 41.0382 286.407 43.3807C286.407 45.1047 286.144 46.6226 285.62 47.9343C285.114 49.2273 284.345 50.3236 283.315 51.2231C282.303 52.1038 281.01 52.8815 279.436 53.5561C278.761 53.8372 277.955 54.1183 277.018 54.3994C276.1 54.6617 275.116 54.9054 274.067 55.1302L272.577 55.327L270.722 55.4113L268.136 55.327L266.309 55.2427V73.3168ZM266.309 52.9939C266.496 52.9939 266.683 52.9939 266.871 52.9939C267.058 52.9939 267.283 53.0127 267.545 53.0502C267.752 53.0502 267.958 53.0502 268.164 53.0502C268.37 53.0502 268.632 53.0689 268.951 53.1064L272.015 52.9939C274.882 52.7129 277.112 51.729 278.705 50.0425C280.298 48.356 281.094 46.229 281.094 43.6618C281.094 42.2938 280.86 41.0945 280.391 40.0638C279.942 39.0144 279.239 38.1618 278.283 37.5059C277.346 36.8313 276.119 36.4096 274.601 36.241L272.914 36.1566L270.16 36.1285H267.883C267.583 36.1285 267.302 36.1285 267.039 36.1285C266.796 36.1285 266.552 36.1473 266.309 36.1848V52.9939Z" fill="#74777B"/>
</svg>
